<?xml version="1.0" encoding="UTF-8"?>
<svg version="1.1" xmlns="http://www.w3.org/2000/svg" width="297" height="275">
<path d="M0 0 C98.01 0 196.02 0 297 0 C297 90.75 297 181.5 297 275 C198.99 275 100.98 275 0 275 C0 184.25 0 93.5 0 0 Z " fill="#FDFDFD" transform="translate(0,0)"/>
<path d="M0 0 C5.16683142 0.07420943 7.90600666 2.73828958 11.46484375 6.2421875 C20.015197 15.99057489 23.12004876 28.96811202 24.7109375 41.52392578 C26.23253099 53.14940249 28.43826601 60.06797672 37.00341797 68.10595703 C39.58613569 70.61957757 41.83043268 73.41321104 44.125 76.1875 C45.04745098 77.27665705 45.97061596 78.36520982 46.89453125 79.453125 C49.24733392 82.24455669 51.53136443 85.08713466 53.8125 87.9375 C57.67266801 92.6733867 61.73185719 97.1998473 65.875 101.6875 C66.48255127 102.35185059 67.09010254 103.01620117 67.71606445 103.70068359 C68.57977661 104.6261499 68.57977661 104.6261499 69.4609375 105.5703125 C69.97446777 106.12348145 70.48799805 106.67665039 71.01708984 107.24658203 C72.5807378 108.80782838 72.5807378 108.80782838 75.5 109.5625 C74.19671676 103.27559282 71.45134975 99.42999885 67.4375 94.5 C63.17170036 89.09143786 59.04741916 83.66621411 55.3125 77.875 C54.61769531 76.79863281 53.92289063 75.72226563 53.20703125 74.61328125 C49.98735717 68.85912689 48.77817335 64.05893989 49.5 57.5625 C51.92871196 54.02982806 53.48134853 52.82734938 57.625 51.75 C68.77494753 54.08789222 78.26109843 65.11641438 84.29296875 74.2890625 C85.39233307 76.10131628 86.49128924 77.91381771 87.58984375 79.7265625 C94.1468629 89.46152345 102.92777453 97.62463212 112.72583008 103.9765625 C123.49480594 110.96735006 133.40368275 118.66638167 140.5 129.5625 C141.056875 130.366875 141.61375 131.17125 142.1875 132 C147.39521831 142.16745003 147.67058565 152.59843031 147.625 163.8125 C147.62886719 164.77929688 147.63273438 165.74609375 147.63671875 166.7421875 C147.63478516 168.14597656 147.63478516 168.14597656 147.6328125 169.578125 C147.63168457 170.41633789 147.63055664 171.25455078 147.62939453 172.11816406 C147.49353595 174.6846095 147.02138689 177.04901219 146.5 179.5625 C146.06974035 187.36095615 147.45372687 194.49811228 149 202.125 C151.96064603 216.77619695 151.96064603 216.77619695 151.5 223.5625 C149.73276189 225.32973811 147.1968116 224.69012833 144.80273438 224.69189453 C143.58477173 224.69504669 142.36680908 224.69819885 141.11193848 224.70144653 C139.77254195 224.69965675 138.43314576 224.6976058 137.09375 224.6953125 C135.7299396 224.6959856 134.36612932 224.69695567 133.00231934 224.69821167 C130.14069479 224.69968838 127.2791014 224.69753497 124.41748047 224.69287109 C120.74181386 224.68717381 117.06622026 224.69045296 113.39055634 224.69644356 C110.57337896 224.70004991 107.75621902 224.69891025 104.93904114 224.69631577 C103.58339937 224.6956467 102.22775604 224.69647421 100.87211609 224.69879532 C98.98049956 224.70132301 97.08887751 224.69679014 95.19726562 224.69189453 C93.57963318 224.69070114 93.57963318 224.69070114 91.92932129 224.68948364 C89.5 224.5625 89.5 224.5625 88.5 223.5625 C88.41498877 222.07753667 88.39181233 220.58895472 88.39453125 219.1015625 C88.13630474 196.16474034 82.44450762 178.22135451 67.5 160.5625 C67.05785156 159.99789062 66.61570312 159.43328125 66.16015625 158.8515625 C63.37898904 155.31189514 60.21736948 152.5169022 56.80859375 149.6171875 C53.56728269 146.73236582 50.54940213 143.63664986 47.50634766 140.546875 C45.01121484 138.02826063 42.48793346 135.62687336 39.75 133.375 C35.87742285 130.14785238 32.71578392 126.43003523 29.5 122.5625 C28.61634766 121.58023438 28.61634766 121.58023438 27.71484375 120.578125 C22.10387761 114.01761074 19.38282985 106.56268849 16.5 98.5625 C15.50578848 95.81035063 14.50753042 93.05980437 13.5 90.3125 C13.25459473 89.64210693 13.00918945 88.97171387 12.75634766 88.28100586 C10.86736282 83.24763545 8.50933826 78.6366019 5.8203125 73.9765625 C3.9830494 70.61730629 2.76904798 67.16926793 1.5 63.5625 C1.17 63.2325 0.84 62.9025 0.5 62.5625 C-1.44447179 51.48391283 -2.04083905 40.17473104 -2.80249023 28.96923828 C-3.18231003 23.45248525 -3.6961125 18.03592532 -4.5 12.5625 C-4.58508382 10.60557223 -4.63042595 8.64626903 -4.625 6.6875 C-4.62757813 5.74132813 -4.63015625 4.79515625 -4.6328125 3.8203125 C-4.41663453 0.14528694 -3.80826865 0.61204318 0 0 Z " fill="#1D1D1D" transform="translate(10.5,37.4375)"/>
<path d="M0 0 C11.4828328 8.59298655 18.51783596 19.68748494 21.34375 33.75390625 C22.99911154 48.15709871 19.32799837 61.33038615 10.34375 72.75390625 C9.60125 73.78515625 8.85875 74.81640625 8.09375 75.87890625 C-1.87010167 86.29566027 -15.28411484 91.65007676 -29.59375 92.12890625 C-41.68168164 92.00471517 -52.45923884 87.50495222 -61.65625 79.75390625 C-62.28917969 79.23183594 -62.92210938 78.70976562 -63.57421875 78.171875 C-72.87652169 69.73203723 -78.20718697 57.89513252 -78.96875 45.484375 C-79.54694919 30.30182794 -75.82491054 17.72952286 -65.40234375 6.27734375 C-47.42474679 -10.97884081 -20.99698158 -13.60031762 0 0 Z " fill="#60AA8E" transform="translate(190.65625,50.24609375)"/>
<path d="M0 0 C0 0.99 0 1.98 0 3 C0.66 3 1.32 3 2 3 C2.51908936 4.15411377 3.03817871 5.30822754 3.57299805 6.49731445 C5.52037137 10.82683954 7.46803076 15.15623589 9.41577148 19.4855957 C10.25471532 21.35047008 11.09358414 23.2153782 11.93237305 25.08032227 C12.74724693 26.89206985 13.56227795 28.70374676 14.37747192 30.51535034 C15.17117647 32.27979713 15.96421342 34.04454439 16.75656128 35.80960083 C18.38346526 39.43012984 20.01335227 43.04788998 21.69775391 46.64208984 C22.15456543 47.62000488 22.61137695 48.59791992 23.08203125 49.60546875 C23.65207886 50.80465942 23.65207886 50.80465942 24.23364258 52.02807617 C25 54 25 54 25 57 C25.56847656 57.14695313 26.13695312 57.29390625 26.72265625 57.4453125 C35.41669632 59.97079326 40.03157637 63.74036673 44.4375 71.6875 C48.0366977 79.4938028 48.26794025 86.09169928 45.4375 94.1875 C42.63511634 100.39418775 38.91179215 105.70438606 32.59375 108.515625 C27.28316926 111.46321187 25.89250186 116.96731527 23.8125 122.375 C23.35762207 123.50373535 22.90274414 124.6324707 22.43408203 125.79541016 C21.45605693 128.23001185 20.48702153 130.66632443 19.53076172 133.109375 C17.93931016 137.16938713 16.30158645 141.20998985 14.66015625 145.25 C12.54049579 150.48236807 10.42662457 155.71691688 8.3359375 160.9609375 C7.90845215 162.03134277 7.4809668 163.10174805 7.04052734 164.20458984 C6.19683306 166.47120166 5.51451576 168.64174361 5 171 C4.34 171 3.68 171 3 171 C3 171.66 3 172.32 3 173 C-21.42 173.33 -45.84 173.66 -71 174 C-71 168.72 -71 163.44 -71 158 C-57.3169873 156.94554453 -43.71865704 156.88346546 -30 156.9375 C-27.76041767 156.94252803 -25.52083425 156.94708862 -23.28125 156.95117188 C-17.85414221 156.96206731 -12.42707642 156.97870087 -7 157 C-6.89872803 156.17185791 -6.79745605 155.34371582 -6.69311523 154.49047852 C-5.89688653 150.48072799 -4.4943252 146.8981477 -2.91015625 143.15234375 C-2.60556992 142.41802628 -2.30098358 141.6837088 -1.98716736 140.92713928 C-1.01819842 138.59474166 -0.04056356 136.26609647 0.9375 133.9375 C1.59108338 132.36938582 2.24408398 130.8010286 2.89648438 129.23242188 C4.0952288 126.35124055 5.29782431 123.47172466 6.50366211 120.59350586 C7.69288667 117.73754301 8.86158975 114.87647835 10 112 C9.43152344 111.6596875 8.86304688 111.319375 8.27734375 110.96875 C0.85912465 106.31223851 -5.83825639 100.8242391 -8.56640625 92.19921875 C-10.37402688 83.03083664 -8.64993186 75.90728122 -4.3125 67.875 C-1.36949203 64.21612523 1.99137476 61.4468232 6 59 C6.66 59 7.32 59 8 59 C2.46298344 45.09131677 -3.74987497 31.63663642 -10 18 C-31.12 18 -52.24 18 -74 18 C-74 12.39 -74 6.78 -74 1 C-66.19363851 0.85560132 -58.38724284 0.71327256 -50.58081055 0.57275391 C-47.93235857 0.52497256 -45.28392701 0.47631242 -42.63549805 0.42724609 C-28.42268407 0.16429428 -14.21566147 -0.09325992 0 0 Z " fill="#040404" transform="translate(241,7)"/>
</svg>
